<svg xmlns="http://www.w3.org/2000/svg" width="46" height="43.281" viewBox="0 0 46 43.281">
  <defs>
    <style>
      .cls-1 {
        fill: #fffffa;
        fill-rule: evenodd;
      }
    </style>
  </defs>
  <path id="land1.svg" class="cls-1" d="M208,231.866h-2v20.12H164v-20.12h-2V221.807h14.76a14.383,14.383,0,0,1-2.351-1.54,5.97,5.97,0,0,1-2.4-4.191,4.586,4.586,0,0,1,1.388-3.525,6.432,6.432,0,0,1,8.592-.307,10.415,10.415,0,0,1,3.046,5.007,14.272,14.272,0,0,1,3.788-6.709,6.859,6.859,0,0,1,9.655.363,5.576,5.576,0,0,1,1.515,4.137,7.221,7.221,0,0,1-2.657,4.928,11.962,11.962,0,0,1-2.956,1.837H208v10.059Zm-4,18.108V231.866H189v18.108h15Zm-21,0h4V223.819h-0.971v0.03l-1.036-.03-1.068.025,0-.025H183v26.155Zm-17,0h15V231.866H166v18.108Zm-2-26.155v6.035h17v-6.035H164Zm16.73-10.01a4.57,4.57,0,0,0-2.9-1.055,4.237,4.237,0,0,0-3.007,1.209,2.616,2.616,0,0,0-.816,2,4.012,4.012,0,0,0,1.662,2.74,14.416,14.416,0,0,0,8.249,3.046C183.707,219.776,183.006,215.659,180.73,213.809Zm15.293,4.642a5.241,5.241,0,0,0,1.971-3.524,3.6,3.6,0,0,0-.993-2.664,4.772,4.772,0,0,0-3.5-1.514,5.074,5.074,0,0,0-3.365,1.312c-2.719,2.376-3.695,7.405-4,9.672C188.356,221.537,193.286,220.842,196.023,218.451ZM206,223.819H189v6.035h17v-6.035Z" transform="translate(-162 -208.719)"/>
</svg>

