<svg xmlns="http://www.w3.org/2000/svg" width="48" height="39" viewBox="0 0 48 39">
  <defs>
    <style>
      .cls-1 {
        fill: #fffffa;
        fill-rule: evenodd;
      }
    </style>
  </defs>
  <path id="land2.svg" class="cls-1" d="M211.531,359.4l-0.224-1.992c3.511-.4,4.411-4.49,4.628-7.047-1.376.658-2.657,1.612-2.983,2.627l-1.9-.616c0.9-2.8,4.86-4.214,5.644-4.468l1.308-.425v1.379C218,351.155,217.533,358.715,211.531,359.4Zm0.236-12.162a8.371,8.371,0,0,0-.5-4.447,10.611,10.611,0,0,0-1.341,5.077l-2,.064a12.274,12.274,0,0,1,2.64-7.639l0.764-.865,0.747,0.88a9.471,9.471,0,0,1,1.66,7.248Zm-7.8-6.471c-0.091,2.173.393,5.48,2,7.283l-1.492,1.335c-2.368-2.656-2.871-7.682-2.325-10.289l0.229-1.09,1.058,0.342a8.949,8.949,0,0,1,4.376,3.239l-1.62,1.175A7.194,7.194,0,0,0,203.963,340.763Zm1.72,19.625,0.99-.428,0.35,1.023c0.519,1.509,1.449,5.268-1.1,7.571l-1.34-1.487c1.228-1.113,1.15-2.935.868-4.266a5.8,5.8,0,0,0-2.424,3,2.812,2.812,0,0,0,.585,2.52l-1.6,1.206a4.82,4.82,0,0,1-.921-4.24C201.785,362.681,204.4,360.943,205.683,360.388Zm4.911,9.72,1.3,0.382-0.75,1.133c-1.477,2.234-4.9,5.374-9.357,5.374a10.7,10.7,0,0,1-5.276-1.47l-0.7-.392,0.229-.77C197.773,368.57,208.109,369.377,210.594,370.108ZM198.3,374.192c4.883,2.231,8.531-.656,10.191-2.453C205.358,371.356,199.926,371.64,198.3,374.192ZM186.211,377c-4.454,0-7.878-3.139-9.357-5.374l-0.75-1.133,1.3-.382c2.486-.73,12.823-1.539,14.552,4.257l0.229,0.77-0.7.392A10.7,10.7,0,0,1,186.211,377Zm-6.7-5.258c1.662,1.8,5.309,4.685,10.192,2.453C188.074,371.64,182.641,371.355,179.507,371.739Zm4.877-3.423a2.812,2.812,0,0,0,.585-2.52,5.8,5.8,0,0,0-2.425-3c-0.282,1.331-.361,3.154.869,4.267l-1.341,1.487c-2.545-2.3-1.614-6.063-1.095-7.572l0.351-1.022,0.99,0.428c1.285,0.555,3.9,2.293,4.584,4.894a4.82,4.82,0,0,1-.921,4.24Zm-2.348-20.27c1.625-1.822,2.1-5.179,2-7.35a7.36,7.36,0,0,0-2.224,2.062l-1.62-1.175a8.119,8.119,0,0,1,4.479-3.265l0.978-.206,0.206,0.98c0.546,2.607.043,7.633-2.326,10.29Zm-5.305-5.259a8.372,8.372,0,0,0-.5,4.447l-1.975.319a9.469,9.469,0,0,1,1.66-7.249l0.748-.88,0.763,0.866a12.279,12.279,0,0,1,2.641,7.638l-2-.064A10.614,10.614,0,0,0,176.731,342.787Zm0.221,9.581-1.9.616c-0.327-1.015-1.607-1.969-2.983-2.627,0.217,2.557,1.117,6.649,4.629,7.047l-0.225,1.992c-6-.681-6.469-8.241-6.469-10.542v-1.379l1.308,0.425C172.092,348.154,176.049,349.565,176.952,352.368Zm2.15,7.407a4.652,4.652,0,0,1-1.805-4.183,8.012,8.012,0,0,1,4.067-5.711l0.746-.4,0.516,0.673a6.6,6.6,0,0,1,.422,7.418l-1.684-1.081a4.491,4.491,0,0,0,.154-4.315,5.932,5.932,0,0,0-2.231,3.616,2.658,2.658,0,0,0,1.086,2.434Zm0.674,2.78-1.552,1.263a7.579,7.579,0,0,0-5.032-2.381,8.981,8.981,0,0,0,2.918,4.862,4.17,4.17,0,0,0,3.656.69l0.468,1.949a6.922,6.922,0,0,1-1.631.2,6.1,6.1,0,0,1-3.681-1.226,11.225,11.225,0,0,1-3.92-7.529l-0.071-1.125,1.123,0.061C175.545,359.508,178.216,360.627,179.776,362.555Zm25.176-4.982a6.6,6.6,0,0,1,.422-7.419l0.517-.672,0.746,0.4a8.014,8.014,0,0,1,4.066,5.712,4.651,4.651,0,0,1-1.805,4.182l-1.271-1.548a2.66,2.66,0,0,0,1.086-2.434,5.932,5.932,0,0,0-2.231-3.616,4.489,4.489,0,0,0,.154,4.315Zm2.814,11.365,0.468-1.949a4.167,4.167,0,0,0,3.656-.69,8.987,8.987,0,0,0,2.918-4.862,7.579,7.579,0,0,0-5.032,2.381l-1.552-1.263c1.56-1.928,4.23-3.047,7.722-3.236l1.123-.061L217,360.383a11.218,11.218,0,0,1-3.921,7.529,6.1,6.1,0,0,1-3.68,1.226A6.922,6.922,0,0,1,207.766,368.938Z" transform="translate(-170 -338)"/>
</svg>

