<svg xmlns="http://www.w3.org/2000/svg" width="43" height="48" viewBox="0 0 43 48">
  <defs>
    <style>
      .cls-1 {
        fill: #fffffa;
        fill-rule: evenodd;
      }
    </style>
  </defs>
  <path id="land4.svg" class="cls-1" d="M111,326.941v31.716a3.986,3.986,0,0,1-4,3.965h-6v-1.983h6a1.993,1.993,0,0,0,2-1.982V326.941H85v-2.974a2,2,0,0,0-4,0v34.69a3.888,3.888,0,0,1-.556,1.982H91v1.983H77a3.987,3.987,0,0,1-4-3.965v-2.973h6V323.967A3.986,3.986,0,0,1,83,320h29a3.986,3.986,0,0,1,4,3.964v2.974h-5ZM75,357.666v0.991a2,2,0,0,0,4,0v-0.991H75Zm39-33.7a1.994,1.994,0,0,0-2-1.982H86.463A3.915,3.915,0,0,1,87,323.967v0.991h27v-0.991ZM92,337.843v-1.982h8v1.982H92ZM88,331.9h16v1.983H88V331.9Zm2.2,24.084a3.186,3.186,0,0,1-2.351-4.059,1.217,1.217,0,0,0-.194-1.1,3.181,3.181,0,0,1,.812-4.614,1.206,1.206,0,0,0,.551-0.962,3.183,3.183,0,0,1,3.6-3.017,1.176,1.176,0,0,0,1.023-.376,3.2,3.2,0,0,1,2.351-1.035h0a3.2,3.2,0,0,1,2.353,1.035,1.182,1.182,0,0,0,1.025.376,3.19,3.19,0,0,1,3.6,3.015,1.207,1.207,0,0,0,.552.964,3.182,3.182,0,0,1,.819,4.613,1.211,1.211,0,0,0-.192,1.1,3.182,3.182,0,0,1-2.344,4.061,1.187,1.187,0,0,0-.839.709,3.171,3.171,0,0,1-.972,1.262v10.037l-4-3.965-4,3.965V357.939a3.172,3.172,0,0,1-.957-1.25A1.2,1.2,0,0,0,90.2,355.98ZM94,363.2l2-1.982,2,1.982v-4.55a3.2,3.2,0,0,1-1.448-.356,1.178,1.178,0,0,0-1.088,0,3.188,3.188,0,0,1-1.464.345V363.2Zm-1.108-7.267a1.183,1.183,0,0,0,.7.669,1.156,1.156,0,0,0,.943-0.064,3.2,3.2,0,0,1,2.948,0,1.158,1.158,0,0,0,.944.064,1.173,1.173,0,0,0,.694-0.667,3.186,3.186,0,0,1,2.251-1.891,1.184,1.184,0,0,0,.768-0.563,1.2,1.2,0,0,0,.107-0.974,3.179,3.179,0,0,1,.507-2.885,1.2,1.2,0,0,0,.227-0.947,1.181,1.181,0,0,0-.536-0.8,3.187,3.187,0,0,1-1.466-2.543,1.193,1.193,0,0,0-.435-0.874,1.173,1.173,0,0,0-.907-0.263,3.2,3.2,0,0,1-2.769-1.009,1.179,1.179,0,0,0-1.743,0,3.178,3.178,0,0,1-2.769,1.009,1.181,1.181,0,0,0-.906.262,1.2,1.2,0,0,0-.432.875,3.182,3.182,0,0,1-1.464,2.542,1.187,1.187,0,0,0-.533.8,1.2,1.2,0,0,0,.23.95,3.187,3.187,0,0,1,.511,2.884,1.2,1.2,0,0,0,.11.975,1.181,1.181,0,0,0,.77.564A3.194,3.194,0,0,1,92.892,355.935Zm3.116-10.163a3.965,3.965,0,1,1-4,3.965A3.987,3.987,0,0,1,96.008,345.772Zm0,5.947a1.982,1.982,0,1,0-2-1.982A1.993,1.993,0,0,0,96.008,351.719Z" transform="translate(-73 -320)"/>
</svg>

