<svg xmlns="http://www.w3.org/2000/svg" version="1.1" xmlns:xlink="http://www.w3.org/1999/xlink" width="512" height="512" x="0" y="0" viewBox="0 0 60 60" style="enable-background:new 0 0 512 512" xml:space="preserve"><g><g fill="#000" fill-rule="nonzero"><path d="M53.612 49.007C50.689 51.488 41.811 54 30.5 54a80.57 80.57 0 0 1-5.42-.189.988.988 0 0 0-1.065.931 1 1 0 0 0 .931 1.064A81.92 81.92 0 0 0 30.5 56c12.409 0 21.2-2.746 24.407-5.467a1 1 0 0 0-1.295-1.526zM20.254 53.286a55.528 55.528 0 0 1-3.2-.565 1 1 0 0 0-.406 1.958c1.057.219 2.171.416 3.314.586a1 1 0 0 0 .293-1.979z" fill="#FFFFFF" opacity="1" data-original="#000000"></path><path d="M7 35.923v6.31C3.179 44.091 1 46.43 1 49c0 6.885 15 11 29.5 11 11.8 0 22.4-2.519 27-6.417a1.002 1.002 0 0 0-1.3-1.526C52.013 55.612 41.684 58 30.5 58 14.294 58 3 53.257 3 49c0-1.59 1.469-3.157 4-4.526V46a1 1 0 0 0 2 0v-2.467a42.782 42.782 0 0 1 9-2.5V44a1 1 0 0 0 2 0v-3.276a62.905 62.905 0 0 1 1.792-.23 1 1 0 0 0-.224-1.988c-.535.061-1.05.133-1.568.2v-4.783c2.459-.362 7-2.332 7-11.923a27.832 27.832 0 0 0-6.5-17.315 2.049 2.049 0 0 0-2.985-.008 27.141 27.141 0 0 0-4.475 7.393 26.914 26.914 0 0 0-3.543-5.4 2.055 2.055 0 0 0-2.986 0A27.92 27.92 0 0 0 0 24c0 9.591 4.541 11.561 7 11.923zm2 5.442v-5.442a7.15 7.15 0 0 0 5.279-3.752A6.649 6.649 0 0 0 18 33.929v5.082a45.811 45.811 0 0 0-9 2.354zM18.992 6A25.7 25.7 0 0 1 25 22c0 5.774-1.81 9.3-5 9.9V28a1 1 0 0 0-2 0v3.9a4.769 4.769 0 0 1-2.854-1.721c.61-2.001.899-4.087.854-6.179a25.713 25.713 0 0 0-1.8-9.311A26.379 26.379 0 0 1 18.992 6zM8 8a25.9 25.9 0 0 1 4.256 7.165l.007.014A23.856 23.856 0 0 1 14 24c0 5.774-1.81 9.3-5 9.9v-3.486l2.707-2.707a1 1 0 0 0-1.414-1.414L8 28.586l-2.293-2.293a1 1 0 0 0-1.414 1.414L7 30.414V33.9c-3.19-.6-5-4.125-5-9.9.13-5.86 2.245-11.5 6-16z" fill="#FFFFFF" opacity="1" data-original="#000000"></path><path d="M58.079 49.391a1 1 0 0 0 1.842-.782l-11.277-26.65c.237-.77.357-1.573.356-2.379a8.445 8.445 0 0 0-3-6.46V11a3 3 0 0 0-2-2.816V3.5a3.5 3.5 0 0 0-7 0v4.684A3 3 0 0 0 35 11v2.12a8.449 8.449 0 0 0-3 6.46 8.083 8.083 0 0 0 .355 2.38L21.08 48.609a1 1 0 0 0 1.84.782l1.07-2.529 5.559-2.385a4.032 4.032 0 0 0 2.075-2.051l6.52-14.68a8.373 8.373 0 0 0 4.7 0l6.53 14.686a4.027 4.027 0 0 0 2.077 2.05l5.554 2.383zM43 19.76a2.5 2.5 0 1 1-5 0c.003-.259.048-.515.132-.76h4.735c.086.244.13.501.133.76zM39 3.5a1.5 1.5 0 0 1 3 0V8h-3zM37 11a1 1 0 0 1 1-1h5a1 1 0 0 1 1 1v5a1 1 0 0 1-1 1h-5a1 1 0 0 1-1-1zm-8.245 31.641-3.64 1.559L33.5 24.378a8.513 8.513 0 0 0 2.8 2.586l-6 13.524-.5 1.122a2.032 2.032 0 0 1-1.045 1.031zm9.235-17.062a6.484 6.484 0 0 1-3.632-3.915A6.027 6.027 0 0 1 34 19.58a6.446 6.446 0 0 1 1.011-3.473c.03.911.476 1.758 1.209 2.3A4.448 4.448 0 0 0 36 19.76a4.5 4.5 0 1 0 9 0 4.41 4.41 0 0 0-.219-1.359 2.988 2.988 0 0 0 1.208-2.294A6.446 6.446 0 0 1 47 19.58c.004.72-.12 1.435-.368 2.112a6.423 6.423 0 0 1-3.626 3.885 6.555 6.555 0 0 1-5.016.002zm14.259 17.064a2.03 2.03 0 0 1-1.049-1.029l-6.5-14.649a8.426 8.426 0 0 0 2.8-2.583L55.884 44.2z" fill="#FFFFFF" opacity="1" data-original="#000000"></path></g></g></svg>
