<svg xmlns="http://www.w3.org/2000/svg" width="254.809" height="249.96" viewBox="0 0 254.809 249.96" data-prefix="ius2xasvh" xmlns:dc="http://purl.org/dc/elements/1.1/" xmlns:cc="http://creativecommons.org/ns#" xmlns:rdf="http://www.w3.org/1999/02/22-rdf-syntax-ns#" xmlns:svg="http://www.w3.org/2000/svg" stroke="#528f10" fill="#528f10"><path d="M235.569 230.74v9.62a9.628 9.628 0 0 1-9.62 9.61h-19.23a9.62 9.62 0 0 1-9.61-9.61v-9.62H24.029A24.062 24.062 0 0 1-.009 206.71V24.04A24.062 24.062 0 0 1 24.029.01H43.26v24.03h211.539v206.7h-19.23zm-28.85 9.62h19.24l-.01-129.79h-19.23v129.79zm16.26-139.41l-6.64-13.28-6.65 13.28h13.29zm-189.335 0V9.62h-9.615A14.439 14.439 0 0 0 9.606 24.04v163.49a23.839 23.839 0 0 1 14.423-4.86h9.615v-81.72zm211.535-67.29H43.26v158.63H24.029a14.42 14.42 0 1 0 0 28.84h173.08v-62.46c-73.06.82-131.72 20-132.313 20.2l-3.033-9.12c.182-.06 5.628-1.85 15.151-4.34V153.4a28.871 28.871 0 0 1-24.039-28.41c0-7.87.808-76.91 28.846-76.91 10.885 0 17.664 10.4 21.887 23.59 5.31-8.78 12.939-13.98 21.383-13.98 8.888 0 16.712 5.75 21.968 14.94 4.32-6.48 10.1-10.13 16.49-10.13 13.48 0 24.04 16.89 24.04 38.45 0 18.93-8.13 34.25-19.23 37.72v11.63c9.3-.68 18.93-1.14 28.85-1.25v-44.42l19.23-38.46 19.23 38.46v116.5h9.61V33.66zm-98.22 95.61c-4.285 7.5-10.276 12.7-17.161 14.36v10.99c9-1.36 18.681-2.56 28.851-3.51v-12.43c-4.47-1.35-8.48-4.6-11.69-9.41zm-26.776 14.36a24.307 24.307 0 0 1-11.972-7.3 28.933 28.933 0 0 1-21.682 17.07v9.6a521.35 521.35 0 0 1 33.654-6.84v-12.53zm-19.231-18.64c0-32.37-7.352-67.3-19.231-67.3s-19.23 34.93-19.23 67.3a19.231 19.231 0 0 0 38.461 0zm9.6-2.11c3.7 7.35 9.048 11.72 14.439 11.72 10.423 0 19.228-15.41 19.228-33.65s-8.8-33.64-19.228-33.64c-7.48 0-14.47 8.11-17.58 20.26a234.859 234.859 0 0 1 3.141 35.31zm41.187-5.47c2.76 7.57 7.27 12.39 11.71 12.39 6.83 0 14.43-11.85 14.43-28.85s-7.6-28.84-14.43-28.84c-4.44 0-8.95 4.82-11.71 12.38a65.558 65.558 0 0 1 0 32.92zm-53.576 67.82c7.616-4.54 23.09-12.17 41.251-12.17h33.655a14.42 14.42 0 0 1 0 28.84h-2.82a11.561 11.561 0 0 0-8.21 3.4 21.049 21.049 0 0 1-15 6.22h-41.537a14.171 14.171 0 0 1-7.339-26.29zm7.339 16.67h41.537a11.561 11.561 0 0 0 8.21-3.4 21.057 21.057 0 0 1 15-6.21h2.82a4.81 4.81 0 0 0 0-9.62h-33.65c-15.851 0-29.555 6.78-36.316 10.81a4.458 4.458 0 0 0-2.146 3.87 4.556 4.556 0 0 0 4.545 4.55zM216.339 4.82h9.61v9.61h-9.61V4.82zm-48.08 0h38.46v9.61h-38.46V4.82z" fill-rule="evenodd" class="path-i2491tba2"/></svg>