<svg xmlns="http://www.w3.org/2000/svg" width="288.439" height="235.53" viewBox="0 0 288.439 235.53" data-prefix="ivh1n4qp1" xmlns:dc="http://purl.org/dc/elements/1.1/" xmlns:cc="http://creativecommons.org/ns#" xmlns:rdf="http://www.w3.org/1999/02/22-rdf-syntax-ns#" xmlns:svg="http://www.w3.org/2000/svg" stroke="#528f10" fill="#528f10"><path d="M259.599 191.92v34h19.24v9.61H9.604v-9.61h19.23v-34a33.7 33.7 0 0 1-28.846-33.3c0-20.07 1.625-120.17 33.654-120.17 28.278 0 32.86 78.46 33.545 110.56h.109c13.254 0 24.038 14.02 24.038 31.24 0 15.09-8.272 27.72-19.23 30.62v15.05h19.23v-4.81a14.439 14.439 0 0 1 14.423-14.42h24.039v-21.05a57.789 57.789 0 0 1-43.269-55.86v-4.81h30.537a43.159 43.159 0 0 1-16.114-33.64V76.9h86.539v14.43a43.187 43.187 0 0 1-16.11 33.64h30.53v4.81a57.785 57.785 0 0 1-43.27 55.86v21.05h24.04a14.438 14.438 0 0 1 14.42 14.42v4.81h19.24v-15.05c-10.96-2.9-19.24-15.53-19.24-30.62 0-17.22 10.79-31.24 24.04-31.24h.11c.69-32.1 5.27-110.56 33.55-110.56 32.03 0 33.65 100.1 33.65 120.17a33.7 33.7 0 0 1-28.85 33.3zm-221.149 34h24.038v-15.07c-8.364-2.22-15.165-10.09-17.912-20.41a33.834 33.834 0 0 1-6.126 1.48v34zM33.642 48.06c-14.846 0-24.038 57.39-24.038 110.56a24.019 24.019 0 0 0 33.661 22.02c0-.13-.007-.26-.007-.39 0-12.75 5.911-23.73 14.357-28.59-.935-59.27-11.123-103.6-23.973-103.6zm48.077 132.19c0-11.72-6.606-21.63-14.423-21.63s-14.423 9.91-14.423 21.63 6.606 21.64 14.423 21.64 14.423-9.91 14.423-21.64zm96.15-88.92v-4.81h-67.3v4.81a33.652 33.652 0 0 0 67.3 0zm14.19 43.26H96.382a48.081 48.081 0 0 0 95.677 0zm-4.57 86.52a4.81 4.81 0 0 0-4.81-4.8h-33.65v-29.06c-1.59.13-3.19.21-4.81.21s-3.221-.08-4.808-.21v29.06h-33.654a4.806 4.806 0 0 0-4.807 4.8v4.81h86.539v-4.81zm38.46 4.81h24.04v-34a33.816 33.816 0 0 1-6.13-1.48c-2.74 10.32-9.54 18.19-17.91 20.41v15.07zm-4.81-67.3c-7.81 0-14.42 9.91-14.42 21.63s6.61 21.64 14.42 21.64 14.43-9.91 14.43-21.64-6.61-21.63-14.43-21.63zm33.66-110.56c-12.85 0-23.04 44.33-23.98 103.6 8.45 4.86 14.36 15.84 14.36 28.59 0 .13 0 .26-.01.39a24.027 24.027 0 0 0 33.67-22.02c0-53.17-9.2-110.56-24.04-110.56zm-52.89 24.04h9.62v9.61h-9.62V72.1zm-4.81-19.23h9.62v9.61h-9.62v-9.61zm-4.8-19.23h9.61v9.62h-9.61v-9.62zm-4.81-19.23h9.61v9.62h-9.61v-9.62zM173.069-.01h9.61v9.62h-9.61V-.01zm-21.21 37.37c2.07-10.29 5.22-19.09 9.09-25.44l8.21 4.99c-3.3 5.42-6.02 13.14-7.87 22.35zm6.78 29.93h-9.61a162.212 162.212 0 0 1 1.11-19.15l9.55 1.13a153.888 153.888 0 0 0-1.05 18.02zm-29.89-18.02l9.55-1.13a162.851 162.851 0 0 1 1.112 19.15h-9.615a152.816 152.816 0 0 0-1.047-18.02zm-9.475-32.36l8.217-4.99c3.868 6.35 7.014 15.15 9.089 25.44l-9.427 1.9c-1.855-9.21-4.578-16.93-7.879-22.35zM105.757-.01h9.616v9.62h-9.616V-.01zM91.334 14.41h9.616v9.62h-9.616v-9.62zm4.808 28.85h-9.615v-9.62h9.615v9.62zm-4.808 19.22h-9.615v-9.61h9.615v9.61zm-4.807 19.23h-9.616V72.1h9.616v9.61z" fill-rule="evenodd" class="path-idx09uhlr"/></svg>