<svg xmlns="http://www.w3.org/2000/svg" width="259.625" height="254.79" viewBox="0 0 259.625 254.79" data-prefix="int77tzec" xmlns:dc="http://purl.org/dc/elements/1.1/" xmlns:cc="http://creativecommons.org/ns#" xmlns:rdf="http://www.w3.org/1999/02/22-rdf-syntax-ns#" xmlns:svg="http://www.w3.org/2000/svg" stroke="#528f10" fill="#528f10"><path d="M256.742 145.48l2.873 1.27v108.04h-62.758L155.52 130.8c-3.624-.28-7.266-.49-10.918-.65l29.578 88.72-9.118 3.05-30.691-92.07c-1.52-.02-3.04-.04-4.563-.04-1.54 0-3.075.02-4.61.04l-21.035 63.1-9.117-3.05 19.92-59.75c-3.637.16-7.263.37-10.87.65L62.758 254.79H0V146.75l2.873-1.27a283.335 283.335 0 0 1 30.781-11.35v-14.25a38.449 38.449 0 1 1 26.885-69.61C64.591 27.2 73.061.02 86.539.02c19.856 0 28.847 59 28.847 76.91a28.871 28.871 0 0 1-24.039 28.41v16.99a346.7 346.7 0 0 1 76.923 0v-16.99a28.87 28.87 0 0 1-24.038-28.41c0-17.91 8.991-76.91 28.846-76.91 13.477 0 21.947 27.18 26 50.25a38.446 38.446 0 1 1 26.886 69.61v14.25a283.318 283.318 0 0 1 30.778 11.35zM57.692 76.93a135.937 135.937 0 0 1 1.179-15.56 28.836 28.836 0 1 0 5.207 33.62 28.71 28.71 0 0 1-6.386-18.06zm-14.423 42.94v11.51a321.416 321.416 0 0 1 38.462-7.82v-18.21a28.98 28.98 0 0 1-10.266-3.87 38.17 38.17 0 0 1-28.196 18.39zm62.5-42.94c0-28.39-12.268-67.3-19.231-67.3s-19.23 38.91-19.23 67.3a19.231 19.231 0 0 0 38.461 0zM9.615 153.04v92.14h46.213l37.813-113.42c-29.853 3.22-58.383 10.4-84.026 21.28zM173.077 9.63c-6.963 0-19.231 38.91-19.231 67.3a19.231 19.231 0 0 0 38.462 0c0-28.39-12.268-67.3-19.231-67.3zm15.073 91.85a28.982 28.982 0 0 1-10.265 3.87v18.21a321.44 321.44 0 0 1 38.461 7.82v-11.51a38.172 38.172 0 0 1-28.196-18.39zM250 81.74a28.84 28.84 0 0 0-49.256-20.37 135.707 135.707 0 0 1 1.179 15.56 28.715 28.715 0 0 1-6.385 18.06A28.844 28.844 0 0 0 250 81.74zm-84.026 50.02l37.813 113.42H250v-92.14c-25.642-10.88-54.173-18.06-84.026-21.28zm64.795 36.5h9.616v9.62h-9.616v-9.62zm-33.654 0h9.616v9.62h-9.616v-9.62zm24.039-105.75a19.247 19.247 0 0 1 19.231 19.23h-9.616a9.632 9.632 0 0 0-9.615-9.62v-9.61zM52.885 168.26H62.5v9.62h-9.615v-9.62zm-33.654 0h9.615v9.62h-9.615v-9.62zm9.615-86.52h-9.615a19.247 19.247 0 0 1 19.231-19.23v9.61a9.633 9.633 0 0 0-9.616 9.62zm68.378 132.01l-2.756 8.26-9.117-3.04 2.756-8.26zm-4.253-17.65l9.127 3.04-2.864 8.6-9.127-3.04zm86.031 37.23l-9.118 3.04-2.718-8.16 9.118-3.04z" fill-rule="evenodd" class="path-ilwih75i7"/></svg>