<svg xmlns="http://www.w3.org/2000/svg" width="268.312" height="269.187" viewBox="0 0 268.312 269.187" data-prefix="i45pcohfv" xmlns:dc="http://purl.org/dc/elements/1.1/" xmlns:cc="http://creativecommons.org/ns#" xmlns:rdf="http://www.w3.org/1999/02/22-rdf-syntax-ns#" xmlns:svg="http://www.w3.org/2000/svg" stroke="#528f10" fill="#528f10"><path d="M235.985 146.212c6.019-1.8 12.527-2.009 18.823-2.009 1.408 0 2.793.089 4.164.207l9.339.774-6.08 7.131c-8.785 10.31-14.453 23.114-17.659 39.958h10.236a9.627 9.627 0 0 1 9.615 9.614v9.614a9.622 9.622 0 0 1-9.386 9.6l-9.117 40.575a9.559 9.559 0 0 1-9.381 7.506H172.1a9.569 9.569 0 0 1-9.372-7.454l-9.372-40.64a9.621 9.621 0 0 1-9.121-9.589v-9.614a9.627 9.627 0 0 1 9.615-9.614h19.166c-.9-37.082-12.355-59.636-35.871-70.753l-9.3-4.4 9.348-4.31a28.982 28.982 0 0 1 11.347-2.253 45.977 45.977 0 0 1 26.3 7.516c-4.456-35.977-13.771-69.016-26.579-93.962l-7.268-14.158 13.893 7.765c36.767 20.551 61.467 77.179 61.467 140.909v9.614h-9.615v-9.614c0-51.29-16.409-97.449-42.091-121.761 10.536 25.964 17.71 57.059 20.949 91.121l1.1 11.5-8.935-7.328c-8.042-6.6-14.639-10.637-23.968-11.7 18.547 14.32 28.013 38.011 28.827 71.818h52.209c2.719-15.2 7.4-27.883 14.24-38.357-5.888.248-11.343 1.107-15.667 3.929l-7.432 4.844v-8.872c0-23.72 10.483-49.553 21.855-68.593-9.756 1.863-15.855 5.591-20.907 12.341l-7.7-5.765c9.676-12.923 22.118-16.289 37.823-17.373l9.93-.681-5.639 8.2c-13.82 20.091-23.318 44.44-25.347 64.264zm-82.139 55.675v9.614h48.077v9.614h-38.7l8.869 38.455h64.443l8.642-38.455h-19.215v-9.614h28.846v-9.614H153.846zm-76.923-57.925v9.855h57.692a9.627 9.627 0 0 1 9.616 9.614v9.614a9.621 9.621 0 0 1-8.974 9.581l-9.769 78.137a9.627 9.627 0 0 1-9.54 8.421H28.273a9.622 9.622 0 0 1-9.535-8.412l-9.91-78.153A9.624 9.624 0 0 1 0 173.045v-9.614a9.627 9.627 0 0 1 9.615-9.614h57.693v-9.855A48.044 48.044 0 0 1 33.654 67.32V43.257C33.654 19.4 50.908-.006 72.115-.006s38.462 19.406 38.462 43.263V67.32a48.045 48.045 0 0 1-33.654 76.642zM9.615 163.431v9.614h43.27v9.614H18.527l9.751 76.911h87.67l9.616-76.911h-24.6v-9.614h33.653v-9.614h-125zm92.412-91.441l-1.065-1.323v-27.41c0-18.552-12.94-33.649-28.847-33.649s-28.846 15.1-28.846 33.649v27.41l-1.065 1.323a38.019 38.019 0 0 0-8.55 24.143 38.508 38.508 0 0 0 33.654 38.145V67.855a19.633 19.633 0 0 0-5.789-13.975l-5.23-5.23 6.8-6.8 5.23 5.229a29.357 29.357 0 0 1 6.262 9.265 33.628 33.628 0 0 1 13.875-9.673l3.437 8.975c-9.512 3.643-14.968 11.394-14.968 21.256v57.373a38.508 38.508 0 0 0 33.652-38.144 38.019 38.019 0 0 0-8.55-24.141zM62.5 173.045h9.615v9.614H62.5v-9.614z" fill-rule="evenodd" class="path-i8go5mima"/></svg>