<svg xmlns="http://www.w3.org/2000/svg" width="264.43" height="249.96" viewBox="0 0 264.43 249.96" data-prefix="i085i40h9" xmlns:dc="http://purl.org/dc/elements/1.1/" xmlns:cc="http://creativecommons.org/ns#" xmlns:rdf="http://www.w3.org/1999/02/22-rdf-syntax-ns#" xmlns:svg="http://www.w3.org/2000/svg" stroke="#528f10" fill="#528f10"><path d="M235.58 215.97v24.38H250v9.61H19.24v-9.61h9.61V206.7a9.63 9.63 0 0 1 9.31-9.6l4.26-12.69a9.618 9.618 0 0 1 9.12-6.55h6.16V24.04a14.425 14.425 0 0 0-28.85 0v5.29a24.068 24.068 0 0 1 19.23 23.55V67.3H0V52.88a24.077 24.077 0 0 1 19.24-23.55v-5.29A24 24 0 0 1 62.5 9.68a24.007 24.007 0 0 1 43.27 14.36v5.29A24.068 24.068 0 0 1 125 52.88V67.3H76.93V52.88a24.068 24.068 0 0 1 19.23-23.55v-5.29a14.425 14.425 0 0 0-28.85 0v153.82h6.1a9.575 9.575 0 0 1 9.17 6.72l3.96 12.51a9.628 9.628 0 0 1 9.62 9.61v33.65h24.04v-43.74c-13.63-2.68-24.04-16.53-24.04-33.17a39.716 39.716 0 0 1 .38-5.48 36.586 36.586 0 0 1 5.39-14.75 39.177 39.177 0 0 1-.96-8.61c0-18.56 12.94-33.65 28.84-33.65 9.45 0 16.19 4.41 20.77 11.14a44.176 44.176 0 0 1 13.25-11.14 37.3 37.3 0 0 1-5.17-19.23c0-18.55 12.94-33.65 28.84-33.65a26.437 26.437 0 0 1 9.62 1.8V38.46a33.655 33.655 0 0 1 67.31 0v144.21a33.7 33.7 0 0 1-28.85 33.3zM24.04 38.46A14.438 14.438 0 0 0 9.62 52.88v4.81h28.85v-4.81a14.44 14.44 0 0 0-14.43-14.42zm62.5 14.42v4.81h28.85v-4.81a14.425 14.425 0 0 0-28.85 0zm0 153.82h-7.05l-6.08-19.23H51.54l-3.23 9.62H62.5v9.61H38.47v33.65h48.07V206.7zm100.96 33.65h38.47v-24.38a33.748 33.748 0 0 1-28.2-26.72 39.322 39.322 0 0 1-10.27 2.73v48.37zm-9.61 0v-48.38a41.556 41.556 0 0 1-25.82-13.81c-5.59 11.32-13.99 16.94-22.26 18.48v43.71h48.08zm-48.08-129.79c-10.51 0-19.06 10.6-19.21 23.69a25.789 25.789 0 0 1 14.4-4.46v9.61c-9.36 0-17.33 8.37-18.94 19.9a29.778 29.778 0 0 0-.29 4.14c0 11.17 6.15 20.56 14.43 23.24v-23.24h9.61v23.29c10.19-3.17 19.23-16.66 19.23-42.52 0-7.89-1.38-33.65-19.23-33.65zm57.69-52.87c-10.6 0-19.23 10.78-19.23 24.03a26.994 26.994 0 0 0 6.53 17.97l4.85 5.36-6.83 2.39c-6.87 2.41-13.14 7.66-17.48 14.5a70.9 70.9 0 0 1 3.32 22.27 91.907 91.907 0 0 1-2.71 23.33c5.38 8.04 13.27 13.29 21.94 14.72v-33.24h9.61v33.25c16.29-2.68 28.85-18.72 28.85-38.06 0-55.09-13.24-76.52-13.38-76.73-3.4-6.35-8.97-9.79-15.47-9.79zm67.31-19.23a24.035 24.035 0 1 0-48.07 0v17.87a29.43 29.43 0 0 1 4.52 6.27c.39.58 14.71 23.17 14.71 81.61 0 16.59-7.62 31.24-19.16 39.88a24.061 24.061 0 0 0 19.16 22.13v-18.75h9.61v18.75a24.085 24.085 0 0 0 19.23-23.55V38.46zM9.62 249.96H0v-9.61h9.62v9.61z" fill-rule="evenodd" class="path-i91qtwi9q"/></svg>